<svg height="512pt" viewBox="-2 0 512 512" width="512pt" xmlns="http://www.w3.org/2000/svg"><path d="m140.402344 377.160156v134.839844h111.113281v-190.53125zm0 0" fill="#6770e6"/><path d="m251.515625 321.46875v190.53125h111.109375v-246.222656zm0 0" fill="#d476e2"/><path d="m362.625 512h111.113281v-301.914062l-111.113281 55.691406zm0 0" fill="#69ebfc"/><path d="m508.234375 205.699219c.054687-.269531.109375-.542969.148437-.816407.046876-.332031.078126-.667968.109376-1.003906.027343-.289062.058593-.578125.070312-.867187.015625-.320313.011719-.640625.011719-.964844-.003907-.21875.015625-.441406.003906-.664063-.003906-.078124-.015625-.15625-.019531-.234374-.015625-.3125-.050782-.625-.082032-.9375-.03125-.304688-.058593-.605469-.105468-.90625-.046875-.304688-.109375-.609376-.171875-.910157-.0625-.304687-.121094-.613281-.195313-.914062-.074218-.289063-.164062-.574219-.25-.859375-.097656-.316406-.195312-.628906-.304687-.9375-.097657-.265625-.207031-.527344-.316407-.789063-.039062-.097656-.074218-.195312-.117187-.289062-.046875-.113281-.085937-.230469-.136719-.339844-.015625-.035156-.03125-.066406-.050781-.101563-.035156-.078124-.082031-.152343-.121094-.230468-.046875-.101563-.082031-.203125-.132812-.304688-.078125-.15625-.171875-.296875-.253907-.449218-.164062-.304688-.328124-.601563-.503906-.894532-.160156-.257812-.324218-.511718-.492187-.761718-.171875-.257813-.351563-.507813-.535157-.757813-.195312-.257813-.394531-.507813-.597656-.753906-.1875-.230469-.382812-.449219-.578125-.667969-.21875-.238281-.4375-.46875-.664062-.695312-.214844-.210938-.4375-.417969-.664063-.621094-.226562-.203125-.457031-.402344-.691406-.59375-.25-.203125-.503906-.398438-.769531-.589844-.226563-.167969-.457031-.332031-.691407-.488281-.28125-.191407-.570312-.371094-.863281-.542969-.238281-.140625-.476562-.277344-.71875-.40625-.296875-.160156-.601562-.308594-.910156-.453125-.265625-.125-.53125-.242187-.800781-.351563-.292969-.121093-.59375-.238281-.894532-.34375-.308593-.109374-.617187-.207031-.925781-.300781-.175781-.050781-.34375-.117187-.523437-.167969h-.003906l-72.855469-19.519531c-10.144531-2.722656-20.566407 3.300781-23.28125 13.445313-2.71875 10.140625 3.296875 20.566406 13.441406 23.28125l24.542969 6.578125-320.296875 160.53125c-9.386719 4.707031-13.183594 16.128906-8.480469 25.515625 3.335938 6.652344 10.046875 10.496094 17.011719 10.496094 2.863281 0 5.769531-.648438 8.503906-2.019532l327.183594-163.992187-8.566407 31.972656c-2.71875 10.144531 3.296876 20.570313 13.441407 23.285156 1.648437.441407 3.304687.65625 4.929687.65625 8.394532 0 16.078125-5.605469 18.355469-14.097656l19.519531-72.859375c.027344-.105469.042969-.210938.070313-.316406.089843-.347656.160156-.695313.222656-1.046875zm0 0" fill="#ff8354"/><path d="m223.875 414.53125-41.847656-13.75h-112.410156l-41.957032 13.761719c-16.503906 5.410156-27.660156 20.8125-27.660156 38.179687v59.277344h251.515625v-59.292969c0-17.359375-11.148437-32.757812-27.640625-38.175781zm0 0" fill="#5fd4e3"/><path d="m85.523438 382.820312h80.46875v34.046876h-80.46875zm0 0" fill="#5fd4e3"/><path d="m139.6875 450.910156h-27.859375l-6.1875-34.042968h40.234375zm0 0" fill="#6770e6"/><path d="m57.664062 404.484375 40.238282 43.332031 27.855468-30.949218-40.234374-34.046876zm0 0" fill="#69ebfc"/><path d="m147.15625 512-7.46875-61.089844h-27.859375l-7.472656 61.089844zm0 0" fill="#5861c7"/><path d="m171.445312 218.191406c-1.941406-7.507812-10.226562-18.144531-41.609374-18.144531-48.492188 0-55.394532 7.179687-68.300782-5.222656-10.890625-10.460938-17.28125 39.894531-2.765625 55.886719-6.128906 22.652343-1.226562 45.335937-1.226562 45.335937h136.429687s11.449219-52.992187-22.527344-77.855469zm0 0" fill="#339"/><path d="m61.535156 207.273438c12.902344 12.402343 19.808594 5.21875 68.300782 5.21875 31.382812 0 39.667968 10.636718 41.609374 18.144531 18.027344 13.191406 23.265626 34.304687 24.210938 51.21875.945312-17.488281-1.359375-46.941407-24.210938-63.664063-1.941406-7.503906-10.226562-18.144531-41.609374-18.144531-48.492188 0-55.394532 7.179687-68.300782-5.21875-7.171875-6.890625-12.394531 12.601563-10.976562 31.28125 1.039062-13.683594 5.421875-24.175781 10.976562-18.835937zm0 0" fill="#5861c7"/><g fill="#ffe4d1"><path d="m156.679688 348.785156h-61.84375v41.914063l30.921874 26.167969 30.949219-26.1875zm0 0"/><path d="m71.320312 298.433594s-5.882812-10.777344-17.644531-10.777344-20.097656 51.71875 17.644531 43.097656zm0 0"/><path d="m180.195312 298.433594s5.878907-10.777344 17.644532-10.777344c11.761718 0 20.09375 51.71875-17.644532 43.097656zm0 0"/></g><path d="m125.757812 229.128906c-90.121093 0-72.890624 147.804688 0 147.804688 72.890626 0 90.121094-147.804688 0-147.804688zm0 0" fill="#ffefe4"/><path d="m125.109375 220.953125s-61.011719-8.605469-61.011719 69.675781c0 0 7.683594-32.355468 25.304688-41.179687 8.210937-4.109375 11.214844 6.300781 35.707031 6.300781s27.496094-10.410156 35.707031-6.300781c17.625 8.824219 25.304688 41.179687 25.304688 41.179687 0-78.28125-61.011719-69.675781-61.011719-69.675781zm0 0" fill="#339"/><path d="m125.757812 221.085938s-61.296874-8.648438-61.296874 70.003906c0 0 7.71875-32.511719 25.425781-41.375 8.246093-4.128906 11.265625 6.332031 35.875 6.332031 24.605469 0 27.625-10.460937 35.871093-6.332031 17.710938 8.863281 25.425782 41.375 25.425782 41.375-.003906-78.652344-61.300782-70.003906-61.300782-70.003906zm0 0" fill="#339"/><path d="m193.851562 404.484375-40.238281 43.332031-27.855469-30.949218 40.234376-34.046876zm0 0" fill="#69ebfc"/><path d="m342.96875 0h-173.9375c-18.792969 0-34.023438 15.234375-34.023438 34.023438v99.800781c0 18.789062 15.230469 34.023437 34.023438 34.023437h25.804688v35.871094c0 5.660156 6.84375 8.492188 10.84375 4.492188l40.363281-40.363282h96.925781c18.789062 0 34.023438-15.234375 34.023438-34.023437v-99.800781c0-18.789063-15.230469-34.023438-34.023438-34.023438zm0 0" fill="#69ebfc"/><path d="m169.03125 0h173.9375c18.792969 0 34.023438 15.230469 34.023438 34.023438v14.222656c0-18.789063-15.230469-34.023438-34.023438-34.023438h-173.9375c-18.792969 0-34.023438 15.234375-34.023438 34.023438v-14.222656c0-18.792969 15.230469-34.023438 34.023438-34.023438zm0 0" fill="#a1f1fc"/><path d="m251.027344 130.734375c-6.238282-.914063-11.789063-3.328125-16.65625-7.238281-2.839844-2.28125-5.203125-5.140625-7.089844-8.582032-2.292969-4.175781-.503906-9.421874 3.90625-11.222656 3.503906-1.433594 7.609375-.21875 9.566406 3.023438.628906 1.042968 1.351563 2.039062 2.167969 2.988281 2.242187 2.621094 4.941406 4.433594 8.105469 5.425781v-23.703125l-1.117188-.503906c-3.074218-1.160156-5.96875-2.53125-8.671875-4.117187-2.703125-1.574219-5.078125-3.410157-7.109375-5.488282-2.050781-2.078125-3.671875-4.429687-4.871094-7.050781-1.210937-2.621094-1.816406-5.554687-1.816406-8.800781 0-2.992188.542969-5.820313 1.621094-8.484375 1.089844-2.660157 2.640625-5.035157 4.691406-7.109375 2.035156-2.078125 4.503906-3.8125 7.425782-5.179688 2.90625-1.375 6.1875-2.265625 9.847656-2.683594v-5.179687c0-3.066406 2.484375-5.550781 5.550781-5.550781 3.070313 0 5.554687 2.484375 5.554687 5.550781v5.429687c3.332032.496094 6.226563 1.371094 8.675782 2.621094 2.460937 1.246094 4.558594 2.703125 6.371094 4.304688.695312.617187 1.371093 1.351562 2.003906 2.144531 3.152344 3.949219 1.550781 9.847656-3.058594 11.902344-3.160156 1.410156-6.800781.527343-9.128906-2.035157-1.21875-1.34375-2.824219-2.664062-4.863282-3.59375v22.339844c3.585938 1.5 6.820313 3.039063 9.742188 4.621094 2.90625 1.578125 5.402344 3.367188 7.484375 5.367188 2.085937 1.992187 3.660156 4.261718 4.738281 6.792968 1.089844 2.546875 1.621094 5.476563 1.621094 8.800782 0 3.746093-.640625 7.074218-1.925781 9.984374-1.296875 2.914063-3.015625 5.40625-5.183594 7.484376-2.167969 2.082031-4.675781 3.75-7.546875 4.996093-2.867188 1.246094-5.847656 2.121094-8.925781 2.617188v5.425781c0 3.066406-2.488281 5.554688-5.554688 5.554688-3.066406 0-5.554687-2.488282-5.554687-5.554688zm-8.226563-65.269531c0 1.996094.644531 3.722656 1.925781 5.175781 1.296876 1.460937 3.394532 2.9375 6.300782 4.433594v-18.21875c-2.496094.667969-4.480469 1.746093-5.984375 3.242187-1.503907 1.503906-2.242188 3.289063-2.242188 5.367188zm26.953125 40.1875c0-2.164063-.582031-3.957032-1.757812-5.367188-1.160156-1.417968-3.113282-2.828125-5.863282-4.246094v19.09375c2.253907-.746093 4.082032-1.933593 5.5-3.558593 1.40625-1.621094 2.121094-3.597657 2.121094-5.921875zm0 0" fill="#6770e6"/><path d="m362.625 498h111.113281v14h-111.113281zm0 0" fill="#5fd4e3"/><path d="m251.515625 498h111.109375v14h-111.109375zm0 0" fill="#b665c2"/><path d="m0 498h251.515625v14h-251.515625zm0 0" fill="#58c3d1"/><path d="m106.066406 498-1.710937 14h42.800781l-1.710938-14zm0 0" fill="#5058b5"/></svg>